<?xml version="1.0" standalone="no"?>
<!DOCTYPE svg PUBLIC "-//W3C//DTD SVG 20010904//EN"
 "http://www.w3.org/TR/2001/REC-SVG-20010904/DTD/svg10.dtd">
<svg version="1.0" xmlns="http://www.w3.org/2000/svg"
 width="575.000000pt" height="575.000000pt" viewBox="0 0 575.000000 575.000000"
 preserveAspectRatio="xMidYMid meet">
<metadata>
Created by potrace 1.14, written by Peter Selinger 2001-2017
</metadata>
<g transform="translate(0.000000,575.000000) scale(0.100000,-0.100000)"
fill="#000000" stroke="none">
<path d="M2758 4435 c-2 -2 -23 -6 -48 -10 -25 -3 -60 -10 -77 -15 -18 -4 -33
-6 -33 -3 0 3 -6 1 -12 -4 -7 -6 -36 -18 -65 -27 -57 -19 -137 -88 -140 -121
-2 -26 -7 -54 -37 -219 -18 -94 -23 -143 -16 -155 5 -9 10 -13 10 -9 0 4 12 3
28 -3 15 -6 36 -12 47 -14 11 -2 31 -6 45 -9 14 -4 41 -8 60 -11 19 -3 46 -7
59 -10 120 -24 603 -24 641 0 6 3 27 7 47 9 21 2 47 6 58 9 11 3 34 9 50 12
17 3 35 7 40 9 6 2 22 6 38 11 31 8 31 7 13 105 -18 94 -22 116 -39 216 -11
62 -20 88 -42 112 -26 30 -114 79 -154 87 -9 1 -36 9 -61 15 -25 7 -56 15 -70
17 -33 5 -338 12 -342 8z"/>
<path d="M2265 3862 c-2 -2 -18 -6 -37 -8 -18 -2 -44 -6 -58 -9 -14 -3 -36 -7
-50 -9 -14 -2 -54 -12 -90 -21 -36 -9 -72 -18 -80 -20 -71 -16 -280 -102 -280
-116 0 -4 -10 -9 -23 -12 -29 -8 -105 -82 -118 -115 -5 -14 -11 -42 -13 -62
-7 -81 101 -177 279 -249 55 -22 202 -66 259 -76 20 -4 36 -10 36 -14 0 -9
-81 -61 -96 -61 -7 0 -14 -4 -16 -8 -1 -4 -25 -21 -53 -37 -58 -33 -198 -135
-203 -147 -2 -4 -8 -8 -12 -8 -5 0 -29 -20 -54 -44 l-45 -43 92 -30 c125 -42
221 -77 227 -84 3 -3 21 -11 40 -19 111 -42 290 -168 290 -204 0 -6 -15 -43
-34 -82 -19 -38 -36 -74 -38 -80 -2 -5 31 -38 72 -73 95 -79 250 -230 250
-244 0 -6 3 -8 6 -4 7 7 108 -104 172 -190 26 -35 50 -63 55 -63 4 0 7 -4 7
-9 0 -4 22 -41 48 -82 26 -41 57 -92 67 -114 30 -59 42 -70 51 -43 8 28 85
152 96 156 4 2 8 8 8 13 0 11 126 177 195 256 50 57 266 269 327 320 43 36 76
68 74 72 -29 57 -76 161 -76 169 0 15 107 109 146 127 18 8 36 20 39 25 4 6
11 8 16 5 5 -4 9 -2 9 2 0 5 17 17 38 26 72 31 117 51 122 52 3 1 19 7 35 14
17 7 74 27 127 45 54 18 101 35 104 39 4 4 -8 22 -27 39 -49 47 -167 138 -179
138 -5 0 -10 4 -10 8 0 5 -56 42 -125 83 -69 41 -125 77 -125 81 0 5 51 18 95
24 6 0 17 4 25 7 30 12 135 41 143 39 4 -1 7 2 7 8 0 6 3 9 8 8 7 -1 50 14 92
34 57 28 149 93 161 115 7 12 16 23 20 23 12 0 28 70 24 103 -8 62 -73 128
-185 186 -64 33 -200 85 -250 96 -8 1 -35 8 -60 15 -58 16 -69 18 -165 36
-146 27 -137 26 -130 3 4 -12 8 -28 9 -35 1 -7 5 -16 8 -20 4 -3 4 -11 2 -18
-3 -7 0 -24 5 -38 7 -19 6 -31 -4 -44 -8 -11 -15 -16 -15 -12 0 4 -15 2 -32
-3 -319 -97 -792 -99 -1123 -5 -5 2 -22 6 -37 11 -25 6 -34 23 -28 50 1 6 4
17 5 25 2 8 4 17 5 20 1 3 2 8 2 11 0 3 3 22 7 41 8 33 6 36 -11 35 -10 -1
-21 -3 -23 -5z m195 -782 c19 -5 44 -10 55 -13 18 -4 86 -14 155 -23 14 -2 46
-4 73 -5 26 -1 47 -6 47 -10 0 -4 -20 -22 -45 -39 -55 -38 -124 -52 -183 -37
-49 12 -125 71 -158 122 -19 29 -19 29 1 21 11 -5 36 -12 55 -16z m950 13 c0
-13 -76 -93 -88 -93 -7 0 -12 -4 -12 -8 0 -13 -74 -44 -112 -47 -41 -4 -124
27 -160 60 -16 13 -28 26 -28 28 0 2 19 4 43 5 95 4 297 36 327 53 19 11 30
11 30 2z"/>
</g>
</svg>
